<svg xmlns="http://www.w3.org/2000/svg" viewBox="0 0 129 32" fill="none"><path
    fill="white"
    fill-rule="evenodd"
    clip-rule="evenodd"
    d="M19.38 1.162a8.693 8.693 0 00-8.682 0L4.34 4.826A8.669 8.669 0 000 12.336v7.329a8.668 8.668 0 004.341 7.509l6.357 3.664a8.693 8.693 0 008.682 0l6.356-3.664a8.668 8.668 0 004.342-7.51v-7.329a8.668 8.668 0 00-4.342-7.509L19.38 1.162zm3.68 16.108v-2.016h-6.79v2.87h2.9l-.01.25c-.11 1.651-1.89 2.767-3.715 2.767-2.318 0-4.318-1.97-4.318-5.226 0-3.2 1.857-5.056 4.143-5.056 1.549 0 3.241.888 3.637 2.346h3.988C22.488 9.857 19.104 7.5 15.259 7.5c-4.79 0-8.24 3.143-8.24 8.472 0 5.397 3.45 8.528 8.338 8.528 4.516 0 7.703-2.744 7.703-7.23zm33.17.434h-4.808v-2.167H59.6v6.944h-2.45l-.147-2.037c-1.216 1.334-3.15 2.223-5.895 2.223-4.752 0-7.662-2.37-7.662-6.667 0-4.296 2.91-6.667 8.215-6.667 5.158 0 7.737 2.019 7.94 5.241h-3.372c-.184-.981-1.068-2.444-4.568-2.444-4.31 0-4.9 2.388-4.9 3.944 0 1.574.608 4.019 4.9 4.019 3.205 0 4.495-1.408 4.568-2.39zm22.28 4.777h-3.667l-1.381-2.759h-7.718l-1.382 2.76h-3.647l6.65-12.963h4.476l6.668 12.963zm-8.898-10.5l-2.634 5.26h5.25l-2.616-5.26zm24.96-2.462h4.476v12.963h-3.315v-8.89l-5.36 8.89h-2.395l-5.361-8.89v8.89h-3.316V9.519h4.477l5.397 9.148 5.397-9.148zm19.587 2.648V9.519h-13.631v12.963h13.631v-2.649h-10.315v-2.63h10.315v-2.407h-10.315v-2.63h10.315zM129 9.519v2.648h-10.316v2.63H129v2.407h-10.316v2.63H129v2.648h-13.631V9.519H129z"
  /></svg>
